<svg width="538" height="449" viewBox="0 0 538 449" fill="none" xmlns="http://www.w3.org/2000/svg">
<g filter="url(#filter0_d)">
<path d="M260.436 388.935C190.495 388.935 133.797 332.237 133.797 262.296C133.797 192.356 190.495 135.658 260.436 135.658C330.376 135.658 387.074 192.356 387.074 262.296C387.074 332.237 330.376 388.935 260.436 388.935Z" fill="url(#paint0_linear)"/>
</g>
<path d="M260.439 383.422C193.543 383.422 139.313 329.192 139.313 262.296C139.313 195.4 193.543 141.17 260.439 141.17C327.335 141.17 381.564 195.4 381.564 262.296C381.564 329.192 327.335 383.422 260.439 383.422Z" fill="url(#paint1_radial)"/>
<mask id="mask0" mask-type="alpha" maskUnits="userSpaceOnUse" x="139" y="141" width="243" height="243">
<path d="M260.439 383.422C193.543 383.422 139.313 329.192 139.313 262.296C139.313 195.4 193.543 141.17 260.439 141.17C327.335 141.17 381.564 195.4 381.564 262.296C381.564 329.192 327.335 383.422 260.439 383.422Z" fill="white"/>
</mask>
<g mask="url(#mask0)">
<path d="M316.48 176.473C314.438 177.121 313.093 175.428 311.591 174.364C310.604 173.666 309.411 173.384 308.393 172.748C306.208 171.386 305.065 168.611 306.326 166.214C307.579 163.831 310.917 163.795 313.056 164.822C313.932 165.243 314.678 165.957 315.592 166.289C316.891 166.76 319.92 166.934 319.446 168.797C318.973 170.66 320.139 175.311 316.48 176.473Z" fill="url(#paint2_linear)"/>
<mask id="mask1" mask-type="alpha" maskUnits="userSpaceOnUse" x="305" y="164" width="15" height="13">
<path d="M316.48 176.473C314.438 177.121 313.093 175.428 311.591 174.364C310.604 173.666 309.411 173.384 308.393 172.748C306.208 171.386 305.065 168.611 306.326 166.214C307.579 163.831 310.917 163.795 313.056 164.822C313.932 165.243 314.678 165.957 315.592 166.289C316.891 166.76 319.92 166.934 319.446 168.797C318.973 170.66 320.139 175.311 316.48 176.473Z" fill="white"/>
</mask>
<g mask="url(#mask1)">
<path d="M315.551 177.71C313.509 178.358 312.164 176.665 310.662 175.601C309.675 174.903 308.483 174.62 307.464 173.985C305.279 172.623 304.137 169.848 305.397 167.451C306.65 165.068 309.989 165.032 312.127 166.059C313.003 166.48 313.749 167.194 314.664 167.526C315.963 167.997 318.569 167.911 318.126 169.951C317.682 171.992 319.211 176.548 315.551 177.71Z" fill="url(#paint3_linear)"/>
</g>
<path opacity="0.113421" d="M417.001 264.616C394.928 276.851 362.193 259.993 343.884 226.964C325.575 193.934 328.627 157.239 350.7 145.004C372.772 132.769 405.508 149.626 423.817 182.656C442.125 215.686 439.074 252.38 417.001 264.616Z" fill="url(#paint4_linear)"/>
<path d="M282.229 156.764C282.923 162.19 275.238 163.198 271.979 160.431C266.85 156.078 273.029 150.179 276.388 151.801C276.388 151.801 281.888 154.089 282.229 156.764Z" fill="url(#paint5_linear)"/>
<mask id="mask2" mask-type="alpha" maskUnits="userSpaceOnUse" x="270" y="151" width="13" height="11">
<path d="M282.229 156.764C282.923 162.19 275.238 163.198 271.979 160.431C266.85 156.078 273.029 150.179 276.388 151.801C276.388 151.801 281.888 154.089 282.229 156.764Z" fill="white"/>
</mask>
<g mask="url(#mask2)">
<path opacity="0.955101" d="M282.229 157.83C282.923 163.256 275.238 164.264 271.979 161.497C266.85 157.144 273.029 151.244 276.388 152.867C276.388 152.867 281.888 155.155 282.229 157.83Z" fill="url(#paint6_linear)"/>
</g>
<g opacity="0.3">
<path d="M224.009 162.361C224.702 167.787 217.017 168.795 213.758 166.028C208.63 161.675 214.808 155.775 218.168 157.398C218.168 157.398 223.667 159.686 224.009 162.361Z" fill="url(#paint7_linear)"/>
<mask id="mask3" mask-type="alpha" maskUnits="userSpaceOnUse" x="211" y="157" width="14" height="11">
<path d="M224.009 162.361C224.702 167.787 217.017 168.795 213.758 166.028C208.63 161.675 214.808 155.775 218.168 157.398C218.168 157.398 223.667 159.686 224.009 162.361Z" fill="white"/>
</mask>
<g mask="url(#mask3)">
<path opacity="0.955101" d="M224.009 163.427C224.702 168.853 217.017 169.86 213.758 167.094C208.63 162.741 214.808 156.841 218.168 158.463C218.168 158.463 223.667 160.752 224.009 163.427Z" fill="url(#paint8_linear)"/>
</g>
</g>
<path opacity="0.3" d="M337.613 255.647C339.463 251.447 331.767 240.588 328.561 246.919C326.867 250.267 332.992 263.349 336.824 255.772L337.613 255.647Z" fill="black"/>
<path opacity="0.21" d="M250.049 175.938C247.408 172.184 234.134 173.167 237.9 179.181C239.892 182.361 254.257 183.873 249.748 176.678L250.049 175.938Z" fill="black"/>
<g opacity="0.2">
<path d="M361.901 318.065C359.223 309.032 348.723 321.126 349.824 327.298C350.488 331.028 354.02 330.953 356.91 329.734C360.386 328.266 360.762 326.515 360.762 323.724C360.762 320.933 362.376 319.668 361.901 318.065Z" fill="url(#paint9_linear)"/>
<mask id="mask4" mask-type="alpha" maskUnits="userSpaceOnUse" x="349" y="314" width="13" height="17">
<path d="M361.901 318.065C359.223 309.032 348.723 321.126 349.824 327.298C350.488 331.028 354.02 330.953 356.91 329.734C360.386 328.266 360.762 326.515 360.762 323.724C360.762 320.933 362.376 319.668 361.901 318.065Z" fill="white"/>
</mask>
<g mask="url(#mask4)">
<path d="M363.217 318.722C360.539 309.69 350.04 321.783 351.14 327.955C351.805 331.685 355.336 331.61 358.226 330.391C361.703 328.924 362.079 327.172 362.079 324.381C362.079 321.591 363.693 320.326 363.217 318.722Z" fill="url(#paint10_linear)"/>
</g>
</g>
</g>
<path d="M376.688 264.27C374.526 265.239 374.445 267.465 372.873 269.474C369.88 273.301 369.659 282.403 376.03 283.223C378.64 283.558 380.236 281.362 380.937 279.126C382.419 274.396 380.354 269.734 377.945 265.696L376.688 264.27Z" fill="url(#paint11_linear)"/>
<path d="M377.244 266.164C375.363 267.003 375.293 268.93 373.926 270.669C371.323 273.982 371.131 281.862 376.671 282.571C378.941 282.862 380.33 280.961 380.939 279.025C382.228 274.93 380.432 270.894 378.337 267.398L377.244 266.164Z" fill="url(#paint12_linear)"/>
<path d="M373.374 213.361C369.409 208.921 364.823 210.296 363.374 215.748C362.487 219.086 363.742 223.001 365.895 225.612C366.763 226.664 367.794 227.612 368.856 228.465C373.315 232.049 379.243 233.168 378.433 225.327C378.013 221.263 375.825 217.669 373.324 214.545L373.374 213.361Z" fill="url(#paint13_linear)"/>
<path d="M366.6 215.398C365.644 218.238 366.474 221.706 368.147 224.097C368.822 225.061 369.642 225.944 370.493 226.747C374.068 230.118 379.043 231.44 378.829 224.596C378.718 221.049 376.688 217.142 374.75 214.285C372.812 211.428 368.163 210.758 366.6 215.398Z" fill="url(#paint14_linear)"/>
<path opacity="0.251279" d="M367.911 216.535C367.253 218.499 367.51 220.785 368.322 222.746C368.465 222.995 368.616 223.234 368.776 223.463C369.404 224.363 370.167 225.187 370.959 225.937L371.165 226.127C374.474 229.132 378.91 230.193 378.708 223.939C378.65 222.128 378.056 220.216 377.235 218.419C376.688 217.373 376.083 216.386 375.487 215.506C373.682 212.839 369.359 212.209 367.911 216.535Z" fill="url(#paint15_linear)"/>
<g opacity="0.5">
<path d="M168.012 241.745C171.947 246.715 175.753 252.973 175.198 259.285C174.457 267.704 164.655 274.982 155.24 272.015C140.385 267.333 141.736 240.77 153.21 232.622C164.684 224.475 164.642 237.487 168.012 241.745Z" fill="url(#paint16_linear)"/>
<path opacity="0.436733" d="M162.313 243.707C165.16 247.729 167.913 252.792 167.512 257.899C166.976 264.711 159.885 270.6 153.074 268.199C142.328 264.411 143.305 242.918 151.605 236.326C159.906 229.734 159.876 240.262 162.313 243.707Z" fill="url(#paint17_linear)"/>
</g>
<g filter="url(#filter1_d)">
<path d="M264.004 258.107L254.508 261.274L257.673 270.456L267.17 267.29L264.004 258.107ZM270.652 296.736C278.882 294.361 284.896 291.512 289.011 288.029C293.126 284.546 295.501 280.271 296.134 274.889C296.767 269.664 295.817 262.857 293.285 254.625C290.752 246.392 287.903 240.218 284.421 236.102C280.939 231.986 276.666 229.611 271.443 228.978C266.062 228.345 259.256 229.294 251.026 231.827C242.795 234.36 236.623 237.21 232.508 240.693C228.393 244.176 226.177 248.45 225.544 253.675C224.911 259.057 225.702 265.865 228.234 274.097C230.767 282.329 233.616 288.504 237.098 292.62C240.58 296.736 244.853 298.952 250.234 299.585C255.457 300.219 262.263 299.269 270.652 296.736ZM283.313 265.706C283.63 266.656 283.472 267.606 283.155 268.556C282.68 269.506 282.047 270.139 281.098 270.456L276.508 271.881L277.932 276.63C278.249 277.738 278.09 278.688 277.774 279.638C277.299 280.588 276.508 281.063 275.558 281.379C274.608 281.696 273.659 281.696 272.709 281.221C271.76 280.746 271.285 279.955 270.968 279.005L269.385 274.255L260.047 277.422L261.63 282.171C261.947 283.121 261.788 284.071 261.313 285.021C260.839 285.971 260.047 286.604 259.098 286.92C258.148 287.237 257.198 287.079 256.249 286.604C255.299 286.129 254.824 285.496 254.666 284.546L253.083 279.796L250.867 280.43C248.652 281.221 247.544 281.538 247.227 281.538C246.277 281.538 245.644 281.221 245.011 280.746C244.378 280.43 243.903 279.796 243.745 279.005C243.429 278.055 243.429 277.105 243.903 276.155C244.378 275.205 245.17 274.572 246.119 274.255L250.709 272.831L247.702 263.648L245.486 264.282C243.27 265.073 242.162 265.39 241.846 265.39C240.896 265.39 240.263 265.073 239.63 264.598C238.997 264.282 238.522 263.648 238.364 262.857C238.047 261.907 238.047 260.957 238.522 260.007C238.997 259.057 239.788 258.424 240.738 258.107L245.328 256.683L243.745 251.933C243.429 250.983 243.429 250.033 243.903 249.084C244.22 248.134 245.011 247.5 245.961 247.184C246.911 246.867 247.86 247.026 248.81 247.5C249.759 247.975 250.393 248.609 250.709 249.559L252.292 254.308L261.788 251.142L260.206 246.392C259.889 245.442 259.889 244.493 260.364 243.543C260.68 242.593 261.472 241.959 262.421 241.643C263.371 241.326 264.321 241.485 265.27 241.959C266.22 242.434 266.853 243.068 267.17 244.018L268.752 248.767L273.342 247.184C274.292 247.026 275.083 247.184 276.033 247.5C276.983 247.975 277.616 248.609 277.932 249.559C278.249 250.508 278.09 251.458 277.774 252.408C277.299 253.358 276.666 253.991 275.716 254.308L271.126 255.733L274.134 264.915L278.724 263.332C279.673 263.015 280.465 263.173 281.414 263.648C282.364 264.123 282.997 264.757 283.313 265.706Z" fill="url(#paint18_linear)"/>
<path d="M264.004 258.107L254.508 261.274L257.673 270.456L267.17 267.29L264.004 258.107ZM270.652 296.736C278.882 294.361 284.896 291.512 289.011 288.029C293.126 284.546 295.501 280.271 296.134 274.889C296.767 269.664 295.817 262.857 293.285 254.625C290.752 246.392 287.903 240.218 284.421 236.102C280.939 231.986 276.666 229.611 271.443 228.978C266.062 228.345 259.256 229.294 251.026 231.827C242.795 234.36 236.623 237.21 232.508 240.693C228.393 244.176 226.177 248.45 225.544 253.675C224.911 259.057 225.702 265.865 228.234 274.097C230.767 282.329 233.616 288.504 237.098 292.62C240.58 296.736 244.853 298.952 250.234 299.585C255.457 300.219 262.263 299.269 270.652 296.736ZM283.313 265.706C283.63 266.656 283.472 267.606 283.155 268.556C282.68 269.506 282.047 270.139 281.098 270.456L276.508 271.881L277.932 276.63C278.249 277.738 278.09 278.688 277.774 279.638C277.299 280.588 276.508 281.063 275.558 281.379C274.608 281.696 273.659 281.696 272.709 281.221C271.76 280.746 271.285 279.955 270.968 279.005L269.385 274.255L260.047 277.422L261.63 282.171C261.947 283.121 261.788 284.071 261.313 285.021C260.839 285.971 260.047 286.604 259.098 286.92C258.148 287.237 257.198 287.079 256.249 286.604C255.299 286.129 254.824 285.496 254.666 284.546L253.083 279.796L250.867 280.43C248.652 281.221 247.544 281.538 247.227 281.538C246.277 281.538 245.644 281.221 245.011 280.746C244.378 280.43 243.903 279.796 243.745 279.005C243.429 278.055 243.429 277.105 243.903 276.155C244.378 275.205 245.17 274.572 246.119 274.255L250.709 272.831L247.702 263.648L245.486 264.282C243.27 265.073 242.162 265.39 241.846 265.39C240.896 265.39 240.263 265.073 239.63 264.598C238.997 264.282 238.522 263.648 238.364 262.857C238.047 261.907 238.047 260.957 238.522 260.007C238.997 259.057 239.788 258.424 240.738 258.107L245.328 256.683L243.745 251.933C243.429 250.983 243.429 250.033 243.903 249.084C244.22 248.134 245.011 247.5 245.961 247.184C246.911 246.867 247.86 247.026 248.81 247.5C249.759 247.975 250.393 248.609 250.709 249.559L252.292 254.308L261.788 251.142L260.206 246.392C259.889 245.442 259.889 244.493 260.364 243.543C260.68 242.593 261.472 241.959 262.421 241.643C263.371 241.326 264.321 241.485 265.27 241.959C266.22 242.434 266.853 243.068 267.17 244.018L268.752 248.767L273.342 247.184C274.292 247.026 275.083 247.184 276.033 247.5C276.983 247.975 277.616 248.609 277.932 249.559C278.249 250.508 278.09 251.458 277.774 252.408C277.299 253.358 276.666 253.991 275.716 254.308L271.126 255.733L274.134 264.915L278.724 263.332C279.673 263.015 280.465 263.173 281.414 263.648C282.364 264.123 282.997 264.757 283.313 265.706Z" fill="url(#paint19_linear)"/>
</g>
<path d="M156.762 137.934L165.368 165.713C167.169 171.525 173.472 174.736 179.447 172.885C184.605 171.287 187.948 166.37 187.435 161.138L185.822 144.673L193.801 159.166C196.336 163.772 201.874 165.937 207.031 164.339C213.006 162.488 216.39 156.275 214.59 150.463L205.983 122.684L156.762 137.934Z" fill="url(#paint20_linear)"/>
<path fill-rule="evenodd" clip-rule="evenodd" d="M187.473 161.759C174.949 163.861 162.49 156.431 158.628 143.966L156.76 137.934L205.978 122.686L207.971 129.118C211.581 141.466 205.51 154.416 194.111 159.703C194.001 159.528 193.896 159.35 193.796 159.168L185.817 144.674L187.43 161.14C187.451 161.346 187.465 161.553 187.473 161.759Z" fill="url(#paint21_linear)"/>
<path d="M153.795 128.358L202.071 110.057L207.259 126.801C211.47 140.393 203.865 154.825 190.273 159.036C176.68 163.247 162.248 155.642 158.037 142.05L153.795 128.358Z" fill="url(#paint22_radial)"/>
<path fill-rule="evenodd" clip-rule="evenodd" d="M205.732 145.861C202.709 151.963 197.287 156.863 190.268 159.037C183.876 161.018 177.298 160.385 171.684 157.745L171.692 157.452C171.896 149.232 177.323 142.059 185.177 139.625C192.683 137.3 200.818 139.797 205.732 145.861Z" fill="url(#paint23_linear)"/>
<path d="M173.825 127.39C175.324 129.999 178.432 131.22 181.307 130.33C184.158 129.446 186.027 126.718 185.821 123.74L184.893 110.328L167.174 115.817L173.825 127.39Z" fill="url(#paint24_linear)"/>
<path opacity="0.2" d="M179.447 124.49L184.344 139.883" stroke="black" stroke-width="3.26281"/>
<path d="M201.798 82.9836C201.513 81.4073 200.987 79.8478 200.204 78.3536C199.712 77.4126 199.139 76.539 198.498 75.7364L131.745 109.888C132.038 110.868 132.429 111.835 132.922 112.776C133.705 114.27 134.69 115.595 135.828 116.735L201.798 82.9836Z" fill="url(#paint25_linear)"/>
<path d="M201.645 87.8301C201.042 84.4647 199.924 81.1366 198.254 77.9488C197.202 75.9414 195.979 74.0782 194.61 72.3671L131.301 104.757C131.924 106.85 132.757 108.913 133.808 110.92C135.478 114.108 137.582 116.932 140.014 119.361L201.645 87.8301Z" fill="url(#paint26_linear)"/>
<ellipse rx="33.4736" ry="32.6164" transform="matrix(0.890252 -0.455467 0.463994 0.885839 166.028 94.4358)" fill="url(#paint27_linear)"/>
<path d="M190.731 112.259C201.238 101.82 191.946 69.5657 174.064 71.6408C169.984 72.1142 168.627 74.3419 166.874 77.2198C162.857 83.8141 158.712 85.9348 150.945 85.3695C147.555 85.1227 144.931 84.9318 142.185 87.9503C130.147 101.183 151.431 127.302 166.121 124.85L190.731 112.259Z" fill="url(#paint28_linear)"/>
<path opacity="0.2" d="M137.071 78.5612C140.198 73.2017 144.888 68.6167 150.896 65.543C156.903 62.4693 163.399 61.3318 169.632 61.9027C167.024 65.771 161.774 70.1046 155.079 73.5297C148.384 76.9548 141.773 78.6896 137.071 78.5612Z" fill="url(#paint29_linear)"/>
<path opacity="0.2" d="M137.071 78.5612C140.198 73.2017 144.888 68.6167 150.896 65.543L155.079 73.5297C148.384 76.9548 141.773 78.6896 137.071 78.5612Z" fill="url(#paint30_linear)"/>
<g filter="url(#filter2_d)">
<ellipse rx="0.81643" ry="0.795521" transform="matrix(0.890252 -0.455467 0.463994 0.885839 197.182 99.9432)" fill="url(#paint31_radial)"/>
</g>
<g filter="url(#filter3_d)">
<ellipse rx="0.81643" ry="0.795521" transform="matrix(0.890252 -0.455467 0.463994 0.885839 197.397 96.8521)" fill="url(#paint32_radial)"/>
</g>
<g filter="url(#filter4_d)">
<ellipse rx="0.81643" ry="0.795521" transform="matrix(0.890252 -0.455467 0.463994 0.885839 197.381 93.2882)" fill="url(#paint33_radial)"/>
</g>
<ellipse opacity="0.700777" rx="3.79257" ry="7.72694" transform="matrix(0.616533 -0.782702 0.804439 0.600321 179.941 81.1219)" fill="url(#paint34_linear)"/>
<path opacity="0.4" fill-rule="evenodd" clip-rule="evenodd" d="M174.679 125.862C165.726 128.354 156.313 127.047 148.638 122.607C148.663 122.603 148.689 122.599 148.716 122.595C149.074 122.538 149.619 122.446 150.327 122.312C151.742 122.045 153.799 121.612 156.294 120.957C161.302 119.643 167.977 117.462 174.74 114.002C181.502 110.542 187.158 106.414 191.135 103.132C193.116 101.497 194.662 100.087 195.699 99.0989C196.218 98.6053 196.609 98.2182 196.862 97.9624C196.989 97.8345 197.081 97.7396 197.138 97.6806C197.166 97.6511 197.186 97.6307 197.197 97.6196L197.201 97.6151L197.202 97.6137L197.203 97.6125L197.205 97.6108C197.824 96.9542 198.57 96.4809 199.369 96.1943C198.761 104.643 194.808 112.75 188.152 118.589C185.571 120.259 182.743 121.924 179.704 123.479C178.013 124.344 176.332 125.136 174.679 125.862Z" fill="black"/>
<path fill-rule="evenodd" clip-rule="evenodd" d="M156.849 124.736L156.846 124.736L156.855 124.735C156.867 124.733 156.89 124.73 156.922 124.725C156.987 124.716 157.092 124.7 157.235 124.677C157.52 124.632 157.954 124.558 158.517 124.451C159.644 124.237 161.283 123.889 163.27 123.366C167.259 122.315 172.576 120.573 177.966 117.816C183.355 115.059 187.864 111.773 191.035 109.161C192.615 107.859 193.847 106.738 194.675 105.952C195.089 105.559 195.4 105.251 195.602 105.048C195.703 104.946 195.777 104.87 195.823 104.824C195.845 104.8 195.861 104.784 195.869 104.775L195.873 104.771L195.874 104.77L195.875 104.769L195.876 104.768C197.517 103.033 200.266 102.902 202.018 104.478C203.77 106.053 203.863 108.739 202.224 110.478C202.224 110.478 202.221 110.482 202.221 110.482L202.216 110.487L202.207 110.496L202.181 110.523C202.16 110.545 202.132 110.575 202.096 110.612C202.024 110.686 201.923 110.79 201.794 110.92C201.535 111.18 201.163 111.548 200.683 112.003C199.725 112.913 198.337 114.174 196.577 115.624C193.069 118.514 188.021 122.203 181.903 125.333C175.785 128.463 169.823 130.407 165.41 131.57C163.196 132.153 161.352 132.545 160.048 132.793C159.395 132.917 158.876 133.005 158.512 133.064C158.33 133.093 158.186 133.115 158.083 133.13C158.032 133.137 157.991 133.143 157.961 133.147L157.923 133.153L157.91 133.154L157.903 133.155C157.903 133.155 157.899 133.156 157.899 133.156C155.517 133.475 153.35 131.85 153.06 129.525C152.77 127.202 154.465 125.059 156.846 124.736" fill="url(#paint35_linear)"/>
<mask id="mask5" mask-type="alpha" maskUnits="userSpaceOnUse" x="153" y="103" width="51" height="31">
<path fill-rule="evenodd" clip-rule="evenodd" d="M156.849 124.736L156.846 124.736L156.855 124.735C156.867 124.733 156.89 124.73 156.922 124.725C156.987 124.716 157.092 124.7 157.235 124.677C157.52 124.632 157.954 124.558 158.517 124.451C159.644 124.237 161.283 123.889 163.27 123.366C167.259 122.315 172.576 120.573 177.966 117.816C183.355 115.059 187.864 111.773 191.035 109.161C192.615 107.859 193.847 106.738 194.675 105.952C195.089 105.559 195.4 105.251 195.602 105.048C195.703 104.946 195.777 104.87 195.823 104.824C195.845 104.8 195.861 104.784 195.869 104.775L195.873 104.771L195.874 104.77L195.875 104.769L195.876 104.768C197.517 103.033 200.266 102.902 202.018 104.478C203.77 106.053 203.863 108.739 202.224 110.478C202.224 110.478 202.221 110.482 202.221 110.482L202.216 110.487L202.207 110.496L202.181 110.523C202.16 110.545 202.132 110.575 202.096 110.612C202.024 110.686 201.923 110.79 201.794 110.92C201.535 111.18 201.163 111.548 200.683 112.003C199.725 112.913 198.337 114.174 196.577 115.624C193.069 118.514 188.021 122.203 181.903 125.333C175.785 128.463 169.823 130.407 165.41 131.57C163.196 132.153 161.352 132.545 160.048 132.793C159.395 132.917 158.876 133.005 158.512 133.064C158.33 133.093 158.186 133.115 158.083 133.13C158.032 133.137 157.991 133.143 157.961 133.147L157.923 133.153L157.91 133.154L157.903 133.155C157.903 133.155 157.899 133.156 157.899 133.156C155.517 133.475 153.35 131.85 153.06 129.525C152.77 127.202 154.465 125.059 156.846 124.736" fill="url(#paint36_linear)"/>
</mask>
<g mask="url(#mask5)">
<path d="M203.146 103.74C203.146 103.74 193.863 113.85 179.679 121.107C165.496 128.363 151.783 130.018 151.783 130.018" stroke="url(#paint37_linear)" stroke-width="38.8041" stroke-dasharray="2.16 8.62"/>
<path opacity="0.4" fill-rule="evenodd" clip-rule="evenodd" d="M153.379 130.16L153.375 130.16L153.387 130.159C153.402 130.157 153.431 130.153 153.471 130.147C153.553 130.135 153.685 130.115 153.863 130.087C154.221 130.03 154.766 129.938 155.474 129.805C156.889 129.537 158.946 129.104 161.441 128.449C166.449 127.135 173.124 124.954 179.887 121.494C186.649 118.035 192.305 113.907 196.282 110.624C198.263 108.989 199.809 107.579 200.847 106.591C201.365 106.097 201.756 105.71 202.009 105.455C202.136 105.327 202.228 105.232 202.285 105.173C202.314 105.143 202.333 105.123 202.344 105.112L202.348 105.107L202.349 105.106L202.35 105.105L202.352 105.103C204.409 102.921 207.861 102.764 210.066 104.752C212.272 106.742 212.394 110.127 210.338 112.313C210.338 112.313 210.34 112.31 210.336 112.315L210.33 112.321L210.319 112.333L210.286 112.367C210.26 112.395 210.224 112.432 210.179 112.479C210.089 112.572 209.963 112.702 209.801 112.865C209.476 113.193 209.009 113.655 208.408 114.227C207.207 115.37 205.467 116.956 203.26 118.778C198.859 122.41 192.528 127.043 184.851 130.971C177.173 134.899 169.69 137.333 164.149 138.787C161.37 139.517 159.055 140.006 157.417 140.315C156.598 140.47 155.946 140.58 155.488 140.653C155.259 140.689 155.079 140.716 154.95 140.735C154.886 140.744 154.834 140.751 154.796 140.757L154.749 140.763L154.733 140.765L154.724 140.767C154.721 140.767 154.722 140.767 154.722 140.767C151.729 141.164 149.002 139.112 148.632 136.183C148.262 133.256 150.385 130.561 153.375 130.16" fill="black"/>
</g>
<path opacity="0.2" fill-rule="evenodd" clip-rule="evenodd" d="M132.634 96.5192C132.479 93.3359 132.805 90.1596 133.58 87.0913L137.801 89.8121L135.897 96.1475L132.634 96.5192Z" fill="url(#paint38_linear)"/>
<path d="M180.879 68.9614C180.879 68.9614 185.14 70.2148 188.301 74.7009" stroke="url(#paint39_linear)" stroke-width="4.82782" stroke-dasharray="2.16 4.31"/>
<ellipse opacity="0.3" rx="0.81643" ry="0.795521" transform="matrix(0.890252 -0.455467 0.463994 0.885839 134.906 92.4879)" fill="url(#paint40_linear)"/>
<path fill-rule="evenodd" clip-rule="evenodd" d="M214.592 156.847C209.482 157.555 202.712 159.066 195.286 161.234C198.153 164.381 202.727 165.673 207.035 164.338C210.796 163.173 213.53 160.28 214.592 156.847ZM187.384 163.715C179.976 166.209 173.593 168.85 169.217 171.156C172.013 173.253 175.794 174.017 179.452 172.883C183.749 171.552 186.786 167.917 187.384 163.715Z" fill="url(#paint41_linear)"/>
<rect x="161.5" y="138.226" width="1.64232" height="7.98754" rx="0.821158" transform="rotate(-17.2135 161.5 138.226)" fill="#0267FF"/>
<g filter="url(#filter5_d)">
<path d="M195.066 124.482L199.773 123.024L201.191 127.602L199.622 128.088L198.677 125.036L195.539 126.008L195.066 124.482Z" fill="white"/>
<path d="M196.012 127.534L197.581 127.048L198.999 131.626L197.43 132.112L196.012 127.534Z" fill="white"/>
</g>
<path opacity="0.2" d="M176.394 162.553L198.397 56.2647" stroke="#161616" stroke-width="5.79338" stroke-linecap="round"/>
<path d="M172.845 160.683L194.848 54.3946" stroke="url(#paint42_linear)" stroke-width="5.79338" stroke-linecap="round"/>
<path d="M196.066 56.9868L279.549 76.1639C282.668 76.8802 284.615 79.9889 283.899 83.1072L278.099 108.354C277.383 111.472 274.274 113.42 271.156 112.703L187.673 93.5262L196.066 56.9868Z" fill="#12D6D6"/>
<path d="M205.252 68.7129L204.001 74.1275C203.823 74.8978 203.772 75.274 203.341 75.7626C202.711 76.4048 201.95 76.5935 200.99 76.3717C199.84 76.106 199.134 75.1903 199.066 74.0575L200.47 74.0407C200.442 74.5164 200.812 75.0018 201.281 75.1101C201.616 75.1875 202.07 75.1043 202.298 74.7806C202.466 74.5608 202.536 74.2594 202.639 73.8128L203.89 68.3982L205.252 68.7129ZM209.031 78.2297C211.398 78.7765 213.227 77.4235 213.839 74.9305C214.372 72.4194 213.363 70.4223 210.965 69.8565C208.579 69.2933 206.709 70.7194 206.146 73.1531C205.584 75.5869 206.653 77.6802 209.031 78.2297ZM209.325 76.957C207.697 76.5692 207.168 75.2473 207.564 73.4808C207.937 71.7675 209.069 70.7355 210.671 71.1293C212.276 71.5119 212.826 72.8501 212.421 74.6029C212.023 76.3222 210.938 77.3533 209.325 76.957ZM216.591 71.3328L214.734 79.3711L216.074 79.6806L217.931 71.6424L216.591 71.3328ZM221.458 72.4574L220.096 72.1427L218.239 80.1809L219.601 80.4956L220.911 74.8242L223.33 81.3572L224.692 81.6719L226.549 73.6337L225.187 73.319L223.879 78.9792L221.458 72.4574ZM237.792 76.2316L236.43 75.9169L235.29 80.8515C235.239 81.0747 235.184 81.2619 235.095 81.4414C234.725 82.1791 233.843 82.634 232.961 82.4302C232.102 82.2316 231.48 81.5117 231.449 80.6812C231.447 80.4339 231.485 80.2192 231.539 79.9847L232.679 75.0501L231.315 74.7466L230.149 79.7928C230.097 80.0161 230.042 80.3562 230.047 80.6396C230.017 82.1967 231.073 83.3229 232.67 83.6918C234.233 84.0529 235.657 83.4882 236.346 82.0833C236.464 81.8283 236.562 81.5569 236.624 81.289L237.792 76.2316ZM244.972 80.2073C244.979 79.1621 244.526 78.4225 243.953 77.9019C243.495 77.4904 242.893 77.2455 242.349 77.1079C241.634 76.9428 240.875 76.9203 240.224 77.1932C239.575 77.455 239.049 78.0036 238.876 78.7516C238.744 79.321 238.773 79.8569 239.105 80.3569C239.416 80.8405 239.927 81.1232 240.553 81.4678L241.949 82.2488C242.272 82.4293 242.519 82.5805 242.676 82.8167C242.818 83.0143 242.854 83.2694 242.799 83.5038C242.732 83.7941 242.523 84.0397 242.195 84.1873C241.825 84.3607 241.286 84.3537 240.828 84.2479C240.248 84.1138 239.766 83.7555 239.483 83.3019C239.277 82.9721 239.205 82.5676 239.198 82.2953L237.753 82.185C237.718 82.6943 237.798 83.2654 238.102 83.8297C238.619 84.7488 239.454 85.2592 240.492 85.4991C241.385 85.7055 242.222 85.6989 242.984 85.2988C243.585 84.9907 244.051 84.4987 244.198 83.8623C244.353 83.1925 244.345 82.7201 244.024 82.1755C243.788 81.7684 243.203 81.3508 242.557 80.9899L241.238 80.2853C240.822 80.0482 240.51 79.8231 240.375 79.592C240.264 79.4133 240.265 79.2021 240.304 79.0346C240.381 78.6997 240.667 78.4833 240.973 78.3778C241.277 78.2834 241.644 78.274 242.032 78.3755C242.423 78.4658 242.752 78.6711 242.992 78.9031C243.295 79.2201 243.489 79.653 243.475 80.1202L244.972 80.2073Z" fill="#171717"/>
<rect opacity="0.4" x="170.871" y="114.219" width="38.9057" height="16.5605" rx="8.28026" transform="rotate(-3.50332 170.871 114.219)" fill="black"/>
<rect x="170.033" y="111.51" width="38.9057" height="16.5605" rx="8.28026" transform="rotate(-3.50332 170.033 111.51)" fill="url(#paint43_linear)"/>
<path opacity="0.4" d="M173.733 125.817C176.647 123.745 178.043 119.965 176.927 116.363C176.422 114.734 175.472 113.364 174.252 112.348C171.857 113.926 170.348 116.706 170.536 119.775C170.688 122.252 171.914 124.408 173.733 125.817Z" fill="black"/>
<rect opacity="0.4" x="151.771" y="130.096" width="36.0602" height="17.5764" rx="8.78821" transform="rotate(12.7472 151.771 130.096)" fill="black"/>
<rect x="150.932" y="127.387" width="36.0602" height="17.5764" rx="8.78821" transform="rotate(12.7472 150.932 127.387)" fill="url(#paint44_linear)"/>
<path opacity="0.4" d="M181.774 135.721C183.858 137.784 184.864 140.843 184.169 143.913C183.574 146.545 181.855 148.632 179.632 149.782C178.527 148.79 177.668 147.495 177.196 145.973C175.916 141.841 177.943 137.474 181.774 135.721Z" fill="black"/>
<path d="M134.671 262.941C56.851 284.924 5.93944 308.787 8.90503 324.8C13.2762 348.402 133.042 346.01 276.41 319.458C419.778 292.906 532.457 252.248 528.086 228.646C524.984 211.898 463.775 208.239 377.259 217.014" stroke="url(#paint45_linear)" stroke-width="1.80937"/>
<defs>
<filter id="filter0_d" x="43.9601" y="50.1681" width="398.175" height="398.175" filterUnits="userSpaceOnUse" color-interpolation-filters="sRGB">
<feFlood flood-opacity="0" result="BackgroundImageFix"/>
<feColorMatrix in="SourceAlpha" type="matrix" values="0 0 0 0 0 0 0 0 0 0 0 0 0 0 0 0 0 0 127 0"/>
<feOffset dx="-17.3878" dy="-13.0408"/>
<feGaussianBlur stdDeviation="36.2245"/>
<feColorMatrix type="matrix" values="0 0 0 0 0.366667 0 0 0 0 1 0 0 0 0 0.886 0 0 0 0.05 0"/>
<feBlend mode="normal" in2="BackgroundImageFix" result="effect1_dropShadow"/>
<feBlend mode="normal" in="SourceGraphic" in2="effect1_dropShadow" result="shape"/>
</filter>
<filter id="filter1_d" x="200.909" y="204.361" width="119.841" height="119.841" filterUnits="userSpaceOnUse" color-interpolation-filters="sRGB">
<feFlood flood-opacity="0" result="BackgroundImageFix"/>
<feColorMatrix in="SourceAlpha" type="matrix" values="0 0 0 0 0 0 0 0 0 0 0 0 0 0 0 0 0 0 127 0"/>
<feOffset/>
<feGaussianBlur stdDeviation="12.2132"/>
<feColorMatrix type="matrix" values="0 0 0 0 0.128544 0 0 0 0 1 0 0 0 0 0.9267 0 0 0 0.56 0"/>
<feBlend mode="normal" in2="BackgroundImageFix" result="effect1_dropShadow"/>
<feBlend mode="normal" in="SourceGraphic" in2="effect1_dropShadow" result="shape"/>
</filter>
<filter id="filter2_d" x="104.35" y="7.12925" width="185.665" height="185.628" filterUnits="userSpaceOnUse" color-interpolation-filters="sRGB">
<feFlood flood-opacity="0" result="BackgroundImageFix"/>
<feColorMatrix in="SourceAlpha" type="matrix" values="0 0 0 0 0 0 0 0 0 0 0 0 0 0 0 0 0 0 127 0"/>
<feOffset/>
<feGaussianBlur stdDeviation="46.0085"/>
<feColorMatrix type="matrix" values="0 0 0 0 0.991333 0 0 0 0 1 0 0 0 0 0.566667 0 0 0 0.49 0"/>
<feBlend mode="normal" in2="BackgroundImageFix" result="effect1_dropShadow"/>
<feBlend mode="normal" in="SourceGraphic" in2="effect1_dropShadow" result="shape"/>
</filter>
<filter id="filter3_d" x="104.565" y="4.03819" width="185.665" height="185.628" filterUnits="userSpaceOnUse" color-interpolation-filters="sRGB">
<feFlood flood-opacity="0" result="BackgroundImageFix"/>
<feColorMatrix in="SourceAlpha" type="matrix" values="0 0 0 0 0 0 0 0 0 0 0 0 0 0 0 0 0 0 127 0"/>
<feOffset/>
<feGaussianBlur stdDeviation="46.0085"/>
<feColorMatrix type="matrix" values="0 0 0 0 0.991333 0 0 0 0 1 0 0 0 0 0.566667 0 0 0 0.49 0"/>
<feBlend mode="normal" in2="BackgroundImageFix" result="effect1_dropShadow"/>
<feBlend mode="normal" in="SourceGraphic" in2="effect1_dropShadow" result="shape"/>
</filter>
<filter id="filter4_d" x="104.549" y="0.47422" width="185.665" height="185.628" filterUnits="userSpaceOnUse" color-interpolation-filters="sRGB">
<feFlood flood-opacity="0" result="BackgroundImageFix"/>
<feColorMatrix in="SourceAlpha" type="matrix" values="0 0 0 0 0 0 0 0 0 0 0 0 0 0 0 0 0 0 127 0"/>
<feOffset/>
<feGaussianBlur stdDeviation="46.0085"/>
<feColorMatrix type="matrix" values="0 0 0 0 0.991333 0 0 0 0 1 0 0 0 0 0.566667 0 0 0 0.49 0"/>
<feBlend mode="normal" in2="BackgroundImageFix" result="effect1_dropShadow"/>
<feBlend mode="normal" in="SourceGraphic" in2="effect1_dropShadow" result="shape"/>
</filter>
<filter id="filter5_d" x="143.071" y="71.0289" width="110.114" height="113.078" filterUnits="userSpaceOnUse" color-interpolation-filters="sRGB">
<feFlood flood-opacity="0" result="BackgroundImageFix"/>
<feColorMatrix in="SourceAlpha" type="matrix" values="0 0 0 0 0 0 0 0 0 0 0 0 0 0 0 0 0 0 127 0"/>
<feOffset/>
<feGaussianBlur stdDeviation="25.9975"/>
<feColorMatrix type="matrix" values="0 0 0 0 1 0 0 0 0 1 0 0 0 0 1 0 0 0 1 0"/>
<feBlend mode="normal" in2="BackgroundImageFix" result="effect1_dropShadow"/>
<feBlend mode="normal" in="SourceGraphic" in2="effect1_dropShadow" result="shape"/>
</filter>
<linearGradient id="paint0_linear" x1="357.553" y1="179.342" x2="231.33" y2="389.623" gradientUnits="userSpaceOnUse">
<stop stop-color="#12D6D6"/>
<stop offset="0.450821" stop-color="#1C2B28"/>
<stop offset="1" stop-color="#171919"/>
</linearGradient>
<radialGradient id="paint1_radial" cx="0" cy="0" r="1" gradientUnits="userSpaceOnUse" gradientTransform="translate(210.328 368.334) rotate(-70.5761) scale(244.28 207.303)">
<stop stop-color="#161616"/>
<stop offset="0.800492" stop-color="#142E32"/>
<stop offset="1" stop-color="#36A89A"/>
</radialGradient>
<linearGradient id="paint2_linear" x1="297.535" y1="185.237" x2="299.863" y2="162.852" gradientUnits="userSpaceOnUse">
<stop stop-color="#28674F" stop-opacity="0.01"/>
<stop offset="1" stop-color="#206664"/>
</linearGradient>
<linearGradient id="paint3_linear" x1="296.492" y1="188.899" x2="294.345" y2="165.881" gradientUnits="userSpaceOnUse">
<stop stop-opacity="0.01"/>
<stop offset="1" stop-color="#123635"/>
</linearGradient>
<linearGradient id="paint4_linear" x1="391.638" y1="138.09" x2="463.299" y2="228.008" gradientUnits="userSpaceOnUse">
<stop stop-color="#75F2F4"/>
<stop offset="1" stop-color="#5AFFFD"/>
</linearGradient>
<linearGradient id="paint5_linear" x1="262.621" y1="169.129" x2="264.442" y2="150.388" gradientUnits="userSpaceOnUse">
<stop stop-color="#076C46" stop-opacity="0.01"/>
<stop offset="1" stop-color="#168481"/>
</linearGradient>
<linearGradient id="paint6_linear" x1="269.03" y1="175.368" x2="262.197" y2="155.14" gradientUnits="userSpaceOnUse">
<stop stop-color="#28674F" stop-opacity="0.01"/>
<stop offset="1" stop-color="#123635"/>
</linearGradient>
<linearGradient id="paint7_linear" x1="204.401" y1="174.725" x2="206.221" y2="155.985" gradientUnits="userSpaceOnUse">
<stop stop-color="#076C46" stop-opacity="0.01"/>
<stop offset="1" stop-color="#168481"/>
</linearGradient>
<linearGradient id="paint8_linear" x1="210.809" y1="180.965" x2="203.977" y2="160.737" gradientUnits="userSpaceOnUse">
<stop stop-color="#28674F" stop-opacity="0.01"/>
<stop offset="1" stop-color="#123635"/>
</linearGradient>
<linearGradient id="paint9_linear" x1="362.649" y1="333.414" x2="340.928" y2="336.606" gradientUnits="userSpaceOnUse">
<stop stop-color="#246C58"/>
<stop offset="1" stop-color="#123635"/>
</linearGradient>
<linearGradient id="paint10_linear" x1="343.344" y1="345.045" x2="339.675" y2="316.283" gradientUnits="userSpaceOnUse">
<stop stop-color="#28674F" stop-opacity="0.01"/>
<stop offset="1" stop-color="#123635"/>
</linearGradient>
<linearGradient id="paint11_linear" x1="382.006" y1="286.812" x2="363.035" y2="288.8" gradientUnits="userSpaceOnUse">
<stop stop-color="#246C58"/>
<stop offset="1" stop-color="#123635"/>
</linearGradient>
<linearGradient id="paint12_linear" x1="366.368" y1="297.202" x2="361.068" y2="267.455" gradientUnits="userSpaceOnUse">
<stop stop-color="#28674F" stop-opacity="0.01"/>
<stop offset="1" stop-color="#123635"/>
</linearGradient>
<linearGradient id="paint13_linear" x1="379.34" y1="235.054" x2="351.94" y2="238.926" gradientUnits="userSpaceOnUse">
<stop stop-color="#246C58"/>
<stop offset="1" stop-color="#123635"/>
</linearGradient>
<linearGradient id="paint14_linear" x1="356.672" y1="240.054" x2="363.315" y2="210.013" gradientUnits="userSpaceOnUse">
<stop stop-color="#076C46"/>
<stop offset="1" stop-color="#168481"/>
</linearGradient>
<linearGradient id="paint15_linear" x1="377.061" y1="231.671" x2="366.777" y2="230.658" gradientUnits="userSpaceOnUse">
<stop stop-color="#28674F"/>
<stop offset="1"/>
</linearGradient>
<linearGradient id="paint16_linear" x1="131.468" y1="241.002" x2="165.506" y2="231.603" gradientUnits="userSpaceOnUse">
<stop/>
<stop offset="1" stop-color="#144240"/>
</linearGradient>
<linearGradient id="paint17_linear" x1="214.756" y1="259.572" x2="163.394" y2="276.835" gradientUnits="userSpaceOnUse">
<stop stop-color="#277F5E"/>
<stop offset="1"/>
</linearGradient>
<linearGradient id="paint18_linear" x1="274.593" y1="238.205" x2="249.24" y2="302.673" gradientUnits="userSpaceOnUse">
<stop stop-color="#12D6D6"/>
<stop offset="1" stop-color="#12D6D6" stop-opacity="0.48"/>
</linearGradient>
<linearGradient id="paint19_linear" x1="260.83" y1="228.788" x2="260.83" y2="299.775" gradientUnits="userSpaceOnUse">
<stop stop-color="white"/>
<stop offset="1" stop-color="white" stop-opacity="0"/>
</linearGradient>
<linearGradient id="paint20_linear" x1="185.177" y1="141.136" x2="183.576" y2="169.96" gradientUnits="userSpaceOnUse">
<stop stop-color="#38C2E0"/>
<stop offset="1" stop-color="#1C7277"/>
</linearGradient>
<linearGradient id="paint21_linear" x1="181.661" y1="136.515" x2="189.067" y2="161.505" gradientUnits="userSpaceOnUse">
<stop stop-color="#042635" stop-opacity="0"/>
<stop offset="1" stop-color="#001431" stop-opacity="0.26"/>
</linearGradient>
<radialGradient id="paint22_radial" cx="0" cy="0" r="1" gradientUnits="userSpaceOnUse" gradientTransform="translate(177.697 161.978) rotate(-61.8584) scale(42.7975 57.8608)">
<stop stop-color="#1A9AB6"/>
<stop offset="1" stop-color="#12E2EF"/>
</radialGradient>
<linearGradient id="paint23_linear" x1="183.916" y1="140.016" x2="187.102" y2="162.146" gradientUnits="userSpaceOnUse">
<stop stop-color="#042635" stop-opacity="0.26"/>
<stop offset="1" stop-color="#001431"/>
</linearGradient>
<linearGradient id="paint24_linear" x1="180.838" y1="130.475" x2="170.224" y2="113.959" gradientUnits="userSpaceOnUse">
<stop stop-color="#042635" stop-opacity="0.26"/>
<stop offset="1" stop-color="#001431"/>
</linearGradient>
<linearGradient id="paint25_linear" x1="192.803" y1="82.8198" x2="155.425" y2="131.357" gradientUnits="userSpaceOnUse">
<stop stop-color="#0F6E83"/>
<stop offset="1" stop-color="#14959D"/>
</linearGradient>
<linearGradient id="paint26_linear" x1="115.112" y1="111.647" x2="154.703" y2="81.281" gradientUnits="userSpaceOnUse">
<stop stop-color="#045162"/>
<stop offset="1" stop-color="#14959D"/>
</linearGradient>
<linearGradient id="paint27_linear" x1="-15.6298" y1="-4.76423" x2="31.2021" y2="-6.72258" gradientUnits="userSpaceOnUse">
<stop stop-color="#066A81"/>
<stop offset="1" stop-color="#12E2EF"/>
</linearGradient>
<linearGradient id="paint28_linear" x1="153.038" y1="80.1792" x2="205.632" y2="95.192" gradientUnits="userSpaceOnUse">
<stop stop-color="#042635"/>
<stop offset="1" stop-color="#001431"/>
</linearGradient>
<linearGradient id="paint29_linear" x1="152.582" y1="63.4795" x2="155.01" y2="79.826" gradientUnits="userSpaceOnUse">
<stop stop-color="#042635"/>
<stop offset="1" stop-color="#001431"/>
</linearGradient>
<linearGradient id="paint30_linear" x1="152.582" y1="63.4795" x2="155.01" y2="79.826" gradientUnits="userSpaceOnUse">
<stop stop-color="#042635"/>
<stop offset="1" stop-color="#001431"/>
</linearGradient>
<radialGradient id="paint31_radial" cx="0" cy="0" r="1" gradientUnits="userSpaceOnUse" gradientTransform="translate(1.16171 0.0941448) rotate(84.6552) scale(1.45811 11.4589)">
<stop stop-color="#FFF067"/>
<stop offset="1" stop-color="#FFF383"/>
</radialGradient>
<radialGradient id="paint32_radial" cx="0" cy="0" r="1" gradientUnits="userSpaceOnUse" gradientTransform="translate(1.16171 0.0941448) rotate(84.6552) scale(1.45811 11.4589)">
<stop stop-color="#FFF067"/>
<stop offset="1" stop-color="#FFF383"/>
</radialGradient>
<radialGradient id="paint33_radial" cx="0" cy="0" r="1" gradientUnits="userSpaceOnUse" gradientTransform="translate(1.16171 0.0941448) rotate(84.6552) scale(1.45811 11.4589)">
<stop stop-color="#FF96AF"/>
<stop offset="1" stop-color="#F255C6"/>
</radialGradient>
<linearGradient id="paint34_linear" x1="-4.44407" y1="2.77062" x2="-0.0351429" y2="19.3113" gradientUnits="userSpaceOnUse">
<stop stop-color="#CEFFDD"/>
<stop offset="1" stop-color="#B2FFF9"/>
</linearGradient>
<linearGradient id="paint35_linear" x1="178.884" y1="111.55" x2="182.945" y2="133.789" gradientUnits="userSpaceOnUse">
<stop stop-color="#14759E"/>
<stop offset="1" stop-color="#074094"/>
</linearGradient>
<linearGradient id="paint36_linear" x1="178.884" y1="111.55" x2="182.945" y2="133.789" gradientUnits="userSpaceOnUse">
<stop stop-color="#2898C8"/>
<stop offset="1" stop-color="#001431"/>
</linearGradient>
<linearGradient id="paint37_linear" x1="177.464" y1="116.879" x2="182.278" y2="126.287" gradientUnits="userSpaceOnUse">
<stop stop-color="#77BFA3"/>
<stop offset="1" stop-color="#194B42"/>
</linearGradient>
<linearGradient id="paint38_linear" x1="132.319" y1="86.5215" x2="127.577" y2="94.4291" gradientUnits="userSpaceOnUse">
<stop stop-color="#042635"/>
<stop offset="1" stop-color="#001431"/>
</linearGradient>
<linearGradient id="paint39_linear" x1="183.177" y1="68.1131" x2="189.277" y2="84.6373" gradientUnits="userSpaceOnUse">
<stop stop-color="white"/>
<stop offset="1" stop-color="white"/>
</linearGradient>
<linearGradient id="paint40_linear" x1="0.678957" y1="-0.0492689" x2="2.05547" y2="1.0128" gradientUnits="userSpaceOnUse">
<stop stop-color="#042635"/>
<stop offset="1" stop-color="#001431"/>
</linearGradient>
<linearGradient id="paint41_linear" x1="189.884" y1="161.252" x2="191.962" y2="167.958" gradientUnits="userSpaceOnUse">
<stop stop-color="#042635" stop-opacity="0"/>
<stop offset="1" stop-color="#001431" stop-opacity="0.26"/>
</linearGradient>
<linearGradient id="paint42_linear" x1="169.787" y1="62.1586" x2="197.905" y2="152.919" gradientUnits="userSpaceOnUse">
<stop stop-color="#9BF0FD"/>
<stop offset="1" stop-color="#E4FDFF"/>
</linearGradient>
<linearGradient id="paint43_linear" x1="193.089" y1="132.124" x2="177.864" y2="109.944" gradientUnits="userSpaceOnUse">
<stop stop-color="#0E8BA7"/>
<stop offset="1" stop-color="#12E2EF"/>
</linearGradient>
<linearGradient id="paint44_linear" x1="176.975" y1="127.387" x2="172.468" y2="148.516" gradientUnits="userSpaceOnUse">
<stop stop-color="#0E8BA7"/>
<stop offset="1" stop-color="#12E2EF"/>
</linearGradient>
<linearGradient id="paint45_linear" x1="259.273" y1="368.789" x2="233.929" y2="229.71" gradientUnits="userSpaceOnUse">
<stop stop-color="#3EF3F3"/>
<stop offset="1" stop-color="#3EF3F3" stop-opacity="0"/>
</linearGradient>
</defs>
</svg>
