<svg width="18" height="18" viewBox="0 0 18 18" fill="none" xmlns="http://www.w3.org/2000/svg">
<path d="M6.633 0H6.63075C5.586 0 4.7385 0.8475 4.7385 1.89225C4.7385 2.937 5.586 3.7845 6.63075 3.7845H8.5215V1.8885C8.52075 0.84525 7.6755 0 6.633 0Z" fill="#9696A5"/>
<path d="M1.905 13.272C0.86025 13.272 0.01275 12.4245 0.01275 11.3798C0.01275 10.335 0.86025 9.4875 1.905 9.4875H3.79725V11.3798C3.79725 12.4245 2.94975 13.272 1.905 13.272Z" fill="#9696A5"/>
<path d="M16.1077 9.4875H11.3693C10.3245 9.4875 9.477 10.335 9.477 11.3798C9.477 12.4245 10.3245 13.272 11.3693 13.272H16.1077C17.1525 13.272 18 12.4245 18 11.3798C18 10.335 17.1525 9.4875 16.1077 9.4875Z" fill="#9696A5"/>
<path d="M4.74 11.3798C4.74 10.3358 5.58675 9.489 6.63075 9.489C7.674 9.489 8.52075 10.3358 8.5215 11.3798V16.1093C8.5215 17.1533 7.67475 18 6.63075 18C5.58675 18 4.74 17.1533 4.74 16.1093V11.3798Z" fill="#9696A5"/>
<path d="M11.3693 14.217C12.4133 14.217 13.26 15.0638 13.26 16.1078C13.26 17.1518 12.4133 17.9985 11.3693 17.9985C10.3253 17.9985 9.47925 17.1525 9.4785 16.1093V14.217H11.3693Z" fill="#9696A5"/>
<path d="M6.63075 8.52825H1.89225C0.8475 8.52825 0 7.68075 0 6.636C0 5.59125 0.8475 4.74375 1.89225 4.74375H6.63075C7.6755 4.74375 8.523 5.59125 8.523 6.636C8.523 7.68075 7.6755 8.52825 6.63075 8.52825Z" fill="#9696A5"/>
<path d="M16.0913 4.743C15.048 4.743 14.2028 5.58825 14.2028 6.6315V8.5275H16.0935C17.1383 8.5275 17.9858 7.68 17.9858 6.63525C17.9858 5.5905 17.1383 4.743 16.0935 4.743H16.0913Z" fill="#9696A5"/>
<path d="M9.47925 6.636V1.89225C9.47925 0.84825 10.326 0.0015 11.37 0.0015C12.414 0.0015 13.2608 0.84825 13.2608 1.89225V6.636C13.2608 7.68 12.414 8.52675 11.37 8.52675C10.326 8.52675 9.47925 7.68 9.47925 6.636Z" fill="#9696A5"/>
</svg>
